<svg width="480" height="380" viewBox="0 0 480 380" fill="none" xmlns="http://www.w3.org/2000/svg">
<g filter="url(#filter0_d_28212_64)">
<rect x="25" y="25" width="430" height="330" rx="10" fill="white"/>
</g>
<rect x="61" y="268" width="358" height="50" rx="2" fill="black"/>
<path d="M205.475 291C204.989 288.315 202.841 286.73 200.208 286.73C196.858 286.73 194.429 289.312 194.429 293.455C194.429 297.597 196.858 300.179 200.208 300.179C202.841 300.179 204.989 298.594 205.475 295.909H203.89C203.506 297.724 201.946 298.696 200.208 298.696C197.83 298.696 195.963 296.855 195.963 293.455C195.963 290.054 197.83 288.213 200.208 288.213C201.946 288.213 203.506 289.185 203.89 291H205.475ZM211.82 300.205C214.48 300.205 216.269 298.185 216.269 295.142C216.269 292.074 214.48 290.054 211.82 290.054C209.161 290.054 207.372 292.074 207.372 295.142C207.372 298.185 209.161 300.205 211.82 300.205ZM211.82 298.849C209.801 298.849 208.88 297.111 208.88 295.142C208.88 293.173 209.801 291.409 211.82 291.409C213.84 291.409 214.761 293.173 214.761 295.142C214.761 297.111 213.84 298.849 211.82 298.849ZM219.293 290.182H217.554L220.673 295.091L217.554 300H219.293L221.645 296.19L223.997 300H225.736L222.566 295.091L225.736 290.182H223.997L221.645 294.196L219.293 290.182ZM227.888 303.682H229.397V298.491H229.525C229.857 299.028 230.496 300.205 232.388 300.205C234.843 300.205 236.556 298.236 236.556 295.116C236.556 292.023 234.843 290.054 232.363 290.054C230.445 290.054 229.857 291.23 229.525 291.741H229.346V290.182H227.888V303.682ZM229.371 295.091C229.371 292.892 230.343 291.409 232.184 291.409C234.102 291.409 235.048 293.02 235.048 295.091C235.048 297.188 234.076 298.849 232.184 298.849C230.369 298.849 229.371 297.315 229.371 295.091ZM241.746 300.23C243.46 300.23 244.354 299.31 244.661 298.67H244.738V300H246.246V293.531C246.246 290.412 243.869 290.054 242.616 290.054C241.133 290.054 239.445 290.565 238.678 292.355L240.11 292.866C240.442 292.151 241.229 291.384 242.667 291.384C244.054 291.384 244.738 292.119 244.738 293.378V293.429C244.738 294.158 243.996 294.094 242.207 294.324C240.385 294.56 238.397 294.963 238.397 297.213C238.397 299.131 239.88 300.23 241.746 300.23ZM241.977 298.875C240.775 298.875 239.906 298.338 239.906 297.29C239.906 296.139 240.954 295.781 242.13 295.628C242.769 295.551 244.482 295.372 244.738 295.065V296.446C244.738 297.673 243.766 298.875 241.977 298.875ZM250.508 290.182H249V300H250.508V295.807H255.213V300H256.721V290.182H255.213V294.401H250.508V290.182ZM260.985 297.776V290.182H259.476V300H261.241L265.945 292.406V300H267.454V290.182H265.715L260.985 297.776ZM268.881 291.588H272.128V300H273.636V291.588H276.858V290.182H268.881V291.588ZM280.567 293.736V290.182H279.058V300H283.175C285.476 300 286.729 298.594 286.729 296.83C286.729 295.04 285.476 293.736 283.175 293.736H280.567ZM280.567 295.142H283.175C284.37 295.142 285.22 295.871 285.22 296.906C285.22 297.897 284.37 298.594 283.175 298.594H280.567V295.142Z" fill="white"/>
<line opacity="0.2" x1="61" y1="219.5" x2="419" y2="219.5" stroke="black"/>
<path d="M62.233 196.818V207H63.4261L68.9744 199.006H69.0739V207H70.3068V196.818H69.1136L63.5455 204.832H63.446V196.818H62.233ZM75.7172 207.159C77.4075 207.159 78.5211 206.125 78.72 204.773H77.5467C77.3279 205.608 76.6319 206.105 75.7172 206.105C74.3251 206.105 73.4302 204.952 73.4302 203.182C73.4302 201.452 74.345 200.318 75.7172 200.318C76.7512 200.318 77.3677 200.955 77.5467 201.651H78.72C78.5211 200.219 77.3081 199.264 75.6973 199.264C73.6291 199.264 72.2569 200.895 72.2569 203.222C72.2569 205.509 73.5694 207.159 75.7172 207.159ZM83.5375 207.159C85.2278 207.159 86.3414 206.125 86.5403 204.773H85.367C85.1483 205.608 84.4522 206.105 83.5375 206.105C82.1454 206.105 81.2505 204.952 81.2505 203.182C81.2505 201.452 82.1653 200.318 83.5375 200.318C84.5716 200.318 85.188 200.955 85.367 201.651H86.5403C86.3414 200.219 85.1284 199.264 83.5176 199.264C81.4494 199.264 80.0772 200.895 80.0772 203.222C80.0772 205.509 81.3897 207.159 83.5375 207.159ZM87.5794 207H87.9771C89.6674 207 90.1547 205.688 90.264 203.182L90.3833 200.457H93.1873V207H94.3606V199.364H89.2697L89.1305 202.744C89.0311 205.31 88.7725 205.906 87.8578 205.906H87.5794V207ZM99.715 207.159C101.266 207.159 102.4 206.384 102.758 205.23L101.624 204.912C101.326 205.707 100.635 206.105 99.715 206.105C98.3379 206.105 97.3883 205.215 97.3336 203.58H102.877V203.082C102.877 200.239 101.187 199.264 99.5957 199.264C97.5275 199.264 96.1554 200.895 96.1554 203.241C96.1554 205.588 97.5076 207.159 99.715 207.159ZM97.3336 202.565C97.4132 201.377 98.2534 200.318 99.5957 200.318C100.868 200.318 101.684 201.273 101.684 202.565H97.3336ZM103.846 209.188H105.02V207H110.667V209.188H111.841V205.906H110.667V199.364H105.815L105.557 202.386C105.373 204.524 105.099 205.26 104.483 205.906H103.846V209.188ZM105.815 205.906C106.352 205.2 106.546 203.982 106.71 202.386L106.909 200.457H109.494V205.906H105.815ZM116.5 207.159C118.569 207.159 119.961 205.588 119.961 203.222C119.961 200.835 118.569 199.264 116.5 199.264C114.432 199.264 113.04 200.835 113.04 203.222C113.04 205.588 114.432 207.159 116.5 207.159ZM116.5 206.105C114.929 206.105 114.213 204.753 114.213 203.222C114.213 201.69 114.929 200.318 116.5 200.318C118.071 200.318 118.787 201.69 118.787 203.222C118.787 204.753 118.071 206.105 116.5 206.105ZM121.752 207H125.351C126.902 207 127.837 206.125 127.837 204.952C127.837 203.754 126.927 203.107 126.087 202.983C126.947 202.804 127.558 202.322 127.558 201.392C127.558 200.174 126.514 199.364 124.874 199.364H121.752V207ZM122.865 205.926V203.58H125.351C126.156 203.58 126.644 204.062 126.644 204.852C126.644 205.518 126.156 205.926 125.351 205.926H122.865ZM122.865 202.565V200.438H124.874C125.813 200.438 126.385 200.83 126.385 201.472C126.385 202.153 125.813 202.565 124.874 202.565H122.865ZM131.86 207.179C133.192 207.179 133.888 206.463 134.127 205.966H134.187V207H135.36V201.969C135.36 199.543 133.511 199.264 132.536 199.264C131.383 199.264 130.07 199.662 129.474 201.054L130.587 201.452C130.846 200.895 131.457 200.298 132.576 200.298C133.655 200.298 134.187 200.87 134.187 201.849V201.889C134.187 202.456 133.61 202.406 132.218 202.585C130.801 202.769 129.255 203.082 129.255 204.832C129.255 206.324 130.408 207.179 131.86 207.179ZM132.039 206.125C131.104 206.125 130.428 205.707 130.428 204.892C130.428 203.997 131.244 203.719 132.158 203.599C132.656 203.54 133.988 203.401 134.187 203.162V204.236C134.187 205.19 133.431 206.125 132.039 206.125ZM136.463 200.457H138.988V207H140.161V200.457H142.667V199.364H136.463V200.457ZM147.184 207.159C148.735 207.159 149.868 206.384 150.226 205.23L149.093 204.912C148.795 205.707 148.104 206.105 147.184 206.105C145.807 206.105 144.857 205.215 144.802 203.58H150.346V203.082C150.346 200.239 148.655 199.264 147.064 199.264C144.996 199.264 143.624 200.895 143.624 203.241C143.624 205.588 144.976 207.159 147.184 207.159ZM144.802 202.565C144.882 201.377 145.722 200.318 147.064 200.318C148.337 200.318 149.153 201.273 149.153 202.565H144.802ZM151.454 207H151.852C153.542 207 154.03 205.688 154.139 203.182L154.258 200.457H157.062V207H158.236V199.364H153.145L153.006 202.744C152.906 205.31 152.648 205.906 151.733 205.906H151.454V207ZM161.562 202.128V199.364H160.388V207H163.59C165.38 207 166.354 205.906 166.354 204.534C166.354 203.142 165.38 202.128 163.59 202.128H161.562ZM161.562 203.222H163.59C164.52 203.222 165.181 203.788 165.181 204.594C165.181 205.364 164.52 205.906 163.59 205.906H161.562V203.222ZM175.18 207.159C177.248 207.159 178.64 205.588 178.64 203.222C178.64 200.835 177.248 199.264 175.18 199.264C173.112 199.264 171.72 200.835 171.72 203.222C171.72 205.588 173.112 207.159 175.18 207.159ZM175.18 206.105C173.609 206.105 172.893 204.753 172.893 203.222C172.893 201.69 173.609 200.318 175.18 200.318C176.751 200.318 177.467 201.69 177.467 203.222C177.467 204.753 176.751 206.105 175.18 206.105ZM180.431 207H181.605V203.778H182.659L185.164 207H186.676L183.553 203.043L186.636 199.364H185.124L182.38 202.685H181.605V199.364H180.431V207ZM190.838 207.159C192.389 207.159 193.523 206.384 193.881 205.23L192.747 204.912C192.449 205.707 191.758 206.105 190.838 206.105C189.461 206.105 188.511 205.215 188.457 203.58H194V203.082C194 200.239 192.31 199.264 190.719 199.264C188.651 199.264 187.278 200.895 187.278 203.241C187.278 205.588 188.631 207.159 190.838 207.159ZM188.457 202.565C188.536 201.377 189.376 200.318 190.719 200.318C191.991 200.318 192.807 201.273 192.807 202.565H188.457ZM198.032 207.179C199.364 207.179 200.06 206.463 200.299 205.966H200.359V207H201.532V201.969C201.532 199.543 199.683 199.264 198.708 199.264C197.555 199.264 196.242 199.662 195.646 201.054L196.759 201.452C197.018 200.895 197.629 200.298 198.748 200.298C199.827 200.298 200.359 200.87 200.359 201.849V201.889C200.359 202.456 199.782 202.406 198.39 202.585C196.973 202.769 195.427 203.082 195.427 204.832C195.427 206.324 196.58 207.179 198.032 207.179ZM198.211 206.125C197.276 206.125 196.6 205.707 196.6 204.892C196.6 203.997 197.415 203.719 198.33 203.599C198.827 203.54 200.16 203.401 200.359 203.162V204.236C200.359 205.19 199.603 206.125 198.211 206.125ZM204.847 199.364H203.673V207H204.847V203.739H208.506V207H209.679V199.364H208.506V202.645H204.847V199.364ZM214.069 207.179C215.401 207.179 216.097 206.463 216.336 205.966H216.396V207H217.569V201.969C217.569 199.543 215.72 199.264 214.745 199.264C213.592 199.264 212.279 199.662 211.683 201.054L212.796 201.452C213.055 200.895 213.666 200.298 214.785 200.298C215.864 200.298 216.396 200.87 216.396 201.849V201.889C216.396 202.456 215.819 202.406 214.427 202.585C213.01 202.769 211.464 203.082 211.464 204.832C211.464 206.324 212.617 207.179 214.069 207.179ZM214.248 206.125C213.313 206.125 212.637 205.707 212.637 204.892C212.637 203.997 213.453 203.719 214.367 203.599C214.865 203.54 216.197 203.401 216.396 203.162V204.236C216.396 205.19 215.64 206.125 214.248 206.125Z" fill="black"/>
<line opacity="0.2" x1="61" y1="162.5" x2="419" y2="162.5" stroke="black"/>
<path d="M68.2585 139.818H67.0256V144.332H65.7926L63.1477 139.818H61.6562L64.679 144.69L61.3778 150H62.7699L65.554 145.486H67.0256V150H68.2585V145.486H69.7301L72.4943 150H73.9062L70.6051 144.71L73.6477 139.818H72.1562L69.5114 144.332H68.2585V139.818ZM77.6101 150.179C78.9425 150.179 79.6385 149.463 79.8771 148.966H79.9368V150H81.1101V144.969C81.1101 142.543 79.2607 142.264 78.2862 142.264C77.1328 142.264 75.8203 142.662 75.2237 144.054L76.3374 144.452C76.5959 143.895 77.2074 143.298 78.326 143.298C79.4048 143.298 79.9368 143.87 79.9368 144.849V144.889C79.9368 145.456 79.3601 145.406 77.968 145.585C76.5511 145.769 75.005 146.082 75.005 147.832C75.005 149.324 76.1584 150.179 77.6101 150.179ZM77.7891 149.125C76.8544 149.125 76.1783 148.707 76.1783 147.892C76.1783 146.997 76.9936 146.719 77.9084 146.599C78.4055 146.54 79.7379 146.401 79.9368 146.162V147.236C79.9368 148.19 79.1811 149.125 77.7891 149.125ZM83.2516 150H84.4249V146.778H85.4789L87.9846 150H89.4959L86.3738 146.043L89.4561 142.364H87.9448L85.2005 145.685H84.4249V142.364H83.2516V150ZM94.5036 145.088H90.049V146.182H94.5036V145.088ZM96.7271 139.818V150H97.9203L103.469 142.006H103.568V150H104.801V139.818H103.608L98.0396 147.832H97.9402V139.818H96.7271ZM107.109 150H110.708C112.26 150 113.194 149.125 113.194 147.952C113.194 146.754 112.284 146.107 111.444 145.983C112.304 145.804 112.916 145.322 112.916 144.392C112.916 143.174 111.872 142.364 110.231 142.364H107.109V150ZM108.223 148.926V146.58H110.708C111.514 146.58 112.001 147.062 112.001 147.852C112.001 148.518 111.514 148.926 110.708 148.926H108.223ZM108.223 145.565V143.438H110.231C111.171 143.438 111.743 143.83 111.743 144.472C111.743 145.153 111.171 145.565 110.231 145.565H108.223ZM125.053 150H126.524L122.269 144.293L126.385 139.818H124.914L120.837 144.233H120.3V139.818H119.067V150H120.3V145.327H121.553L125.053 150ZM128.154 152.844C129.213 152.844 129.963 152.282 130.401 151.114L133.652 142.384L132.37 142.364L130.262 148.449H130.182L128.074 142.364H126.801L129.625 150.04L129.407 150.636C128.989 151.78 128.452 151.889 127.597 151.67L127.299 152.705C127.418 152.764 127.756 152.844 128.154 152.844ZM138.034 150.159C139.724 150.159 140.838 149.125 141.036 147.773H139.863C139.644 148.608 138.948 149.105 138.034 149.105C136.642 149.105 135.747 147.952 135.747 146.182C135.747 144.452 136.661 143.318 138.034 143.318C139.068 143.318 139.684 143.955 139.863 144.651H141.036C140.838 143.219 139.624 142.264 138.014 142.264C135.945 142.264 134.573 143.895 134.573 146.222C134.573 148.509 135.886 150.159 138.034 150.159ZM142.15 143.457H144.676V150H145.849V143.457H148.355V142.364H142.15V143.457ZM152.772 150.159C154.84 150.159 156.232 148.588 156.232 146.222C156.232 143.835 154.84 142.264 152.772 142.264C150.704 142.264 149.312 143.835 149.312 146.222C149.312 148.588 150.704 150.159 152.772 150.159ZM152.772 149.105C151.201 149.105 150.485 147.753 150.485 146.222C150.485 144.69 151.201 143.318 152.772 143.318C154.343 143.318 155.059 144.69 155.059 146.222C155.059 147.753 154.343 149.105 152.772 149.105Z" fill="black"/>
<path d="M62.125 82H66.8636V76.8182H69.4886C73.4688 76.8182 76.1364 74.4744 76.1364 70.7159C76.1364 67 73.5369 64.5455 69.6591 64.5455H62.125V82ZM66.8636 73.1364V68.3295H68.5341C70.196 68.3295 71.1932 69.2159 71.1932 70.7159C71.1932 72.2074 70.196 73.1364 68.5341 73.1364H66.8636ZM83.9347 82.2386C87.5653 82.2386 89.9006 80.5 90.3438 77.7727H86.0483C85.7756 78.5142 85 78.9318 84.0369 78.9318C82.6392 78.9318 81.821 78.0114 81.821 76.75V76.5455H90.3438V75.4545C90.3438 71.2869 87.7869 68.7386 83.8324 68.7386C79.7756 68.7386 77.1847 71.4318 77.1847 75.4886C77.1847 79.7244 79.7415 82.2386 83.9347 82.2386ZM81.821 73.9545C81.8466 72.821 82.7841 72.0455 83.9347 72.0455C85.1023 72.0455 85.9886 72.8295 86.0142 73.9545H81.821ZM91.4794 85.8864H96.0476V82H102.934V85.8864H107.366V78.4545H105.32V68.9091H94.1385L93.8658 72.5909C93.7294 74.4318 93.6271 77.9773 92.4339 78.4545H91.4794V85.8864ZM96.9339 78.4545C97.6158 77.2273 97.8885 75.4205 98.0249 72.5909V72.3182H100.957V78.4545H96.9339ZM112.763 82.2045C114.467 82.2045 115.754 81.625 116.547 80.1591H116.649V82H121.047V73.0341C121.047 70.6136 118.754 68.7386 115.013 68.7386C111.101 68.7386 109.175 70.7841 109.013 73.1705H113.342C113.453 72.3608 114.05 71.9773 114.945 71.9773C115.763 71.9773 116.342 72.3523 116.342 73.0341V73.0682C116.342 73.8267 115.507 74.0653 113.308 74.2273C110.607 74.4233 108.501 75.5142 108.501 78.3864C108.501 80.9943 110.257 82.2045 112.763 82.2045ZM114.297 79.2386C113.496 79.2386 112.933 78.8466 112.933 78.1136C112.933 77.4403 113.411 76.9205 114.501 76.75C115.251 76.6307 115.882 76.4773 116.376 76.2727V77.3636C116.376 78.5568 115.362 79.2386 114.297 79.2386ZM123.295 82H127.999V77.9432H129.056L131.579 82H137.033L132.806 75.5227L136.999 68.9091H131.613L128.817 73.5795H127.999V68.9091H123.295V82ZM137.483 72.4205H141.574V82H146.006V72.4205H150.165V68.9091H137.483V72.4205ZM156.344 76V68.9091H151.912V82H156.344L159.991 74.875V82H164.423V68.9091H159.991L156.344 76ZM166.818 86.9091H171.523V79.8523H171.591C172.136 81.1818 173.398 82.1705 175.239 82.1705C178.034 82.1705 180.386 79.9886 180.386 75.4545C180.386 70.7159 177.864 68.7386 175.273 68.7386C173.33 68.7386 172.102 69.8636 171.591 71.1932H171.489V68.9091H166.818V86.9091ZM171.42 75.4545C171.42 73.5114 172.205 72.3523 173.5 72.3523C174.795 72.3523 175.545 73.5114 175.545 75.4545C175.545 77.3977 174.795 78.5568 173.5 78.5568C172.205 78.5568 171.42 77.3636 171.42 75.4545ZM188.664 82.2386C192.925 82.2386 195.448 79.5114 195.448 75.4886C195.448 71.4659 192.925 68.7386 188.664 68.7386C184.403 68.7386 181.88 71.4659 181.88 75.4886C181.88 79.5114 184.403 82.2386 188.664 82.2386ZM188.698 78.7614C187.437 78.7614 186.687 77.5085 186.687 75.4545C186.687 73.4006 187.437 72.1477 188.698 72.1477C189.891 72.1477 190.641 73.4006 190.641 75.4545C190.641 77.5085 189.891 78.7614 188.698 78.7614ZM197.357 82H203.971C207.653 82 209.63 80.7727 209.63 78.3864C209.63 76.8864 208.403 75.3523 205.437 75.2159C207.585 74.875 208.744 73.7841 208.744 72.4886C208.744 70.1023 206.596 68.9091 203.085 68.9091H197.357V82ZM201.721 78.6932V76.6136H203.971C204.729 76.6136 205.198 77.0142 205.198 77.6705C205.198 78.3097 204.729 78.6932 203.971 78.6932H201.721ZM201.721 74.2273V72.3182H203.085C203.886 72.3182 204.38 72.6761 204.38 73.2727C204.38 73.8693 203.945 74.2273 203.221 74.2273H201.721ZM215.091 82.2045C216.795 82.2045 218.082 81.625 218.875 80.1591H218.977V82H223.375V73.0341C223.375 70.6136 221.082 68.7386 217.341 68.7386C213.429 68.7386 211.503 70.7841 211.341 73.1705H215.67C215.781 72.3608 216.378 71.9773 217.273 71.9773C218.091 71.9773 218.67 72.3523 218.67 73.0341V73.0682C218.67 73.8267 217.835 74.0653 215.636 74.2273C212.935 74.4233 210.83 75.5142 210.83 78.3864C210.83 80.9943 212.585 82.2045 215.091 82.2045ZM216.625 79.2386C215.824 79.2386 215.261 78.8466 215.261 78.1136C215.261 77.4403 215.739 76.9205 216.83 76.75C217.58 76.6307 218.21 76.4773 218.705 76.2727V77.3636C218.705 78.5568 217.69 79.2386 216.625 79.2386ZM224.624 72.4205H228.714V82H233.146V72.4205H237.305V68.9091H224.624V72.4205ZM243.484 72.4545V68.9091H239.053V82H245.7C249.433 82 251.717 80.2188 251.734 77.2955C251.717 74.2869 249.433 72.4545 245.7 72.4545H243.484ZM243.484 75.9659H245.7C246.663 75.9659 247.354 76.5028 247.371 77.2614C247.354 77.9773 246.663 78.4886 245.7 78.4886H243.484V75.9659ZM258.482 82H262.846V72.4205H266.255V82H270.687V68.9091H258.482V82ZM273.084 86.9091H277.788V79.8523H277.857C278.402 81.1818 279.663 82.1705 281.504 82.1705C284.3 82.1705 286.652 79.9886 286.652 75.4545C286.652 70.7159 284.129 68.7386 281.538 68.7386C279.595 68.7386 278.368 69.8636 277.857 71.1932H277.754V68.9091H273.084V86.9091ZM277.686 75.4545C277.686 73.5114 278.47 72.3523 279.766 72.3523C281.061 72.3523 281.811 73.5114 281.811 75.4545C281.811 77.3977 281.061 78.5568 279.766 78.5568C278.47 78.5568 277.686 77.3636 277.686 75.4545ZM294.93 82.2386C299.191 82.2386 301.714 79.5114 301.714 75.4886C301.714 71.4659 299.191 68.7386 294.93 68.7386C290.668 68.7386 288.146 71.4659 288.146 75.4886C288.146 79.5114 290.668 82.2386 294.93 82.2386ZM294.964 78.7614C293.702 78.7614 292.952 77.5085 292.952 75.4545C292.952 73.4006 293.702 72.1477 294.964 72.1477C296.157 72.1477 296.907 73.4006 296.907 75.4545C296.907 77.5085 296.157 78.7614 294.964 78.7614ZM310.509 86.4318H315.214V82.2386C319.526 82.2386 322.577 79.4432 322.577 75.4886C322.577 71.5341 319.526 68.7386 315.214 68.7386V64.5455H310.509V68.7386C306.197 68.7386 303.146 71.5341 303.146 75.4886C303.146 79.4432 306.197 82.2386 310.509 82.2386V86.4318ZM315.214 78.7273V72.25C316.671 72.25 317.702 73.5881 317.702 75.4886C317.702 77.3892 316.671 78.7273 315.214 78.7273ZM310.509 78.7273C309.086 78.7273 308.021 77.3892 308.021 75.4886C308.021 73.5881 309.052 72.25 310.509 72.25V78.7273ZM328.914 76V68.9091H324.482V82H328.914L332.562 74.875V82H336.994V68.9091H332.562L328.914 76ZM338.877 82H340.241C342.934 82 344.843 80.4318 345.082 75.9659L345.286 72.4205H347.468V82H351.9V68.9091H341.127L340.923 74.7045C340.82 77.2955 340.275 78.4545 339.252 78.4545H338.843L338.877 82ZM358.586 72.4545V68.9091H354.154V82H360.802C364.535 82 366.819 80.2188 366.836 77.2955C366.819 74.2869 364.535 72.4545 360.802 72.4545H358.586ZM358.586 75.9659H360.802C361.765 75.9659 362.455 76.5028 362.472 77.2614C362.455 77.9773 361.765 78.4886 360.802 78.4886H358.586V75.9659Z" fill="black"/>
<defs>
<filter id="filter0_d_28212_64" x="0" y="0" width="480" height="380" filterUnits="userSpaceOnUse" color-interpolation-filters="sRGB">
<feFlood flood-opacity="0" result="BackgroundImageFix"/>
<feColorMatrix in="SourceAlpha" type="matrix" values="0 0 0 0 0 0 0 0 0 0 0 0 0 0 0 0 0 0 127 0" result="hardAlpha"/>
<feOffset/>
<feGaussianBlur stdDeviation="12.5"/>
<feColorMatrix type="matrix" values="0 0 0 0 0 0 0 0 0 0 0 0 0 0 0 0 0 0 0.15 0"/>
<feBlend mode="normal" in2="BackgroundImageFix" result="effect1_dropShadow_28212_64"/>
<feBlend mode="normal" in="SourceGraphic" in2="effect1_dropShadow_28212_64" result="shape"/>
</filter>
</defs>
</svg>
